<?xml version="1.0" standalone="no"?>
<!DOCTYPE svg PUBLIC "-//W3C//DTD SVG 20010904//EN"
 "http://www.w3.org/TR/2001/REC-SVG-20010904/DTD/svg10.dtd">
<svg version="1.0" xmlns="http://www.w3.org/2000/svg"
 width="1280.000000pt" height="1066.000000pt" viewBox="0 0 1280.000000 1066.000000"
 preserveAspectRatio="xMidYMid meet">
<metadata>
Created by potrace 1.15, written by Peter Selinger 2001-2017
</metadata>
<g transform="translate(0.000000,1066.000000) scale(0.100000,-0.100000)"
fill="#000000" stroke="none">
<path d="M7650 10654 c-49 -10 -126 -37 -184 -66 -61 -31 -156 -117 -156 -141
0 -8 -22 -29 -49 -46 -62 -40 -183 -167 -236 -246 -87 -133 -190 -377 -259
-621 -112 -392 -239 -1250 -317 -2134 -6 -69 -12 -135 -15 -146 -4 -25 -23
-35 -51 -28 -18 5 -22 24 -37 172 -9 92 -21 201 -26 242 -5 41 -19 154 -30
250 -66 554 -150 1063 -236 1420 -107 445 -260 792 -433 983 -26 28 -51 65
-55 80 -9 39 -81 106 -153 144 -178 96 -424 96 -457 1 -23 -65 45 -149 168
-208 146 -70 313 -87 393 -40 l32 19 42 -47 c267 -300 515 -1076 643 -2017 48
-346 94 -875 99 -1130 l2 -120 -25 0 c-29 0 -60 48 -87 135 -20 65 -137 262
-308 520 -310 466 -604 830 -965 1190 -599 599 -1230 1004 -1930 1240 -766
257 -1641 276 -2490 54 -74 -19 -195 -51 -269 -70 -74 -19 -156 -46 -181 -60
-152 -83 -84 -233 214 -474 218 -175 268 -246 285 -394 14 -121 41 -167 175
-300 140 -139 178 -206 175 -303 l-2 -63 59 -39 c146 -95 189 -200 161 -388
l-8 -52 40 -21 c55 -28 109 -84 135 -139 26 -59 28 -199 2 -281 l-17 -55 38
-30 c101 -80 151 -156 174 -265 11 -54 7 -314 -7 -371 -5 -25 -1 -30 56 -60
135 -72 219 -232 220 -419 l0 -56 65 -11 c191 -33 315 -157 360 -357 l16 -74
42 10 c101 23 234 -18 330 -102 25 -22 71 -75 103 -116 43 -58 68 -81 103 -97
54 -24 132 -26 183 -4 48 20 123 90 155 144 14 24 27 42 29 41 2 -2 -8 -45
-21 -96 -37 -142 -49 -243 -42 -364 l6 -107 -91 -47 c-106 -56 -202 -139 -252
-223 -36 -58 -96 -222 -96 -259 0 -16 -6 -20 -29 -20 -39 1 -50 -8 -71 -56
-30 -68 -43 -189 -44 -416 l-1 -215 57 -56 c71 -71 90 -127 90 -267 -1 -137
-27 -283 -88 -475 -13 -43 -24 -80 -24 -82 0 -3 24 -20 53 -38 63 -41 128
-110 157 -167 44 -87 61 -184 59 -334 l-3 -139 105 -26 c188 -48 336 -136 425
-254 48 -64 103 -165 123 -228 10 -30 18 -38 45 -43 45 -9 83 -52 95 -108 16
-68 5 -253 -18 -327 -26 -85 -81 -172 -208 -333 -176 -223 -217 -305 -233
-465 -6 -54 -14 -116 -20 -138 -5 -22 -10 -76 -10 -120 0 -63 5 -91 24 -130
27 -60 81 -113 147 -150 l49 -26 61 32 c112 60 192 177 224 327 12 57 15 143
15 378 0 303 12 490 44 673 27 151 131 308 229 346 45 17 51 17 122 0 132 -31
208 -2 351 134 94 90 176 141 226 141 35 0 81 -19 133 -54 35 -25 47 -27 105
-24 96 5 167 43 265 142 120 120 276 370 383 611 65 145 137 489 237 1119 150
944 220 1253 375 1644 l33 82 39 0 c29 0 45 -7 62 -25 46 -49 81 -237 66 -345
-15 -100 -12 -338 5 -424 14 -75 61 -196 75 -196 14 0 61 120 76 192 17 80 20
333 5 433 -17 114 32 330 80 355 10 6 33 10 53 10 l34 0 42 -106 c57 -147 104
-293 150 -469 70 -267 103 -442 235 -1270 53 -328 109 -621 156 -811 26 -105
46 -158 110 -285 226 -452 403 -646 601 -657 61 -4 72 -2 103 22 44 34 96 56
133 56 50 0 129 -49 230 -144 145 -135 226 -166 350 -131 54 15 68 16 109 4
66 -18 131 -85 182 -187 75 -148 91 -279 100 -797 7 -397 8 -401 34 -480 43
-131 116 -219 225 -274 l43 -22 51 28 c72 39 133 103 152 160 20 59 21 187 1
268 -8 33 -15 85 -15 115 -1 120 -64 244 -234 463 -203 260 -224 311 -228 524
-2 144 2 163 45 210 11 13 35 25 53 29 27 5 35 13 49 52 68 181 181 316 335
396 71 37 199 80 271 91 l45 7 -4 131 c-5 156 11 250 59 344 35 68 115 152
173 180 20 9 36 20 36 25 0 4 -17 67 -39 140 -57 195 -74 305 -69 440 5 138
27 198 97 259 l46 41 -1 222 c-2 350 -34 481 -118 473 -14 -2 -22 13 -37 70
-56 214 -160 341 -358 439 l-64 32 -2 168 c-1 154 -4 179 -32 284 -17 63 -29
117 -28 118 2 2 10 -9 19 -25 26 -51 102 -128 151 -152 64 -32 137 -32 202 0
36 18 63 44 106 102 123 164 281 242 425 209 41 -10 42 -9 48 17 50 242 166
369 367 404 l64 11 6 86 c14 196 91 327 235 399 l43 22 -8 62 c-4 34 -8 127
-7 207 0 123 4 153 21 198 32 80 103 163 181 211 11 7 10 20 -4 72 -25 92 -24
221 3 280 25 55 79 111 134 139 l40 21 -8 57 c-26 185 19 293 161 383 l60 38
-3 60 c-4 102 56 200 202 332 96 87 136 160 149 273 18 151 74 230 283 396
186 147 295 282 295 366 0 40 -38 87 -91 114 -21 11 -100 36 -176 56 -76 20
-187 49 -248 65 -422 111 -894 168 -1310 156 -909 -26 -1727 -322 -2512 -910
-379 -284 -783 -679 -1119 -1097 -318 -395 -705 -974 -770 -1152 -40 -111 -59
-140 -87 -136 -22 3 -22 5 -19 163 7 380 68 1067 128 1439 100 627 228 1077
407 1433 81 159 296 395 323 352 16 -26 90 -49 159 -49 91 0 170 20 272 70 86
42 156 108 165 154 7 37 -17 83 -53 102 -33 16 -167 28 -219 18z"/>
</g>
</svg>
